<svg width="36" height="40" viewBox="0 0 36 40" fill="none" xmlns="http://www.w3.org/2000/svg">
<path d="M33.2 40L20.6 26C19.6 26.8889 18.45 27.5926 17.15 28.1111C15.85 28.6296 14.4667 28.8889 13 28.8889C9.36667 28.8889 6.292 27.4911 3.776 24.6956C1.25867 21.8985 0 18.4815 0 14.4444C0 10.4074 1.25867 6.99037 3.776 4.19333C6.292 1.39778 9.36667 0 13 0C16.6333 0 19.7087 1.39778 22.226 4.19333C24.742 6.99037 26 10.4074 26 14.4444C26 16.0741 25.7667 17.6111 25.3 19.0556C24.8333 20.5 24.2 21.7778 23.4 22.8889L36 36.8889L33.2 40ZM13 24.4444C15.5 24.4444 17.6253 23.4726 19.376 21.5289C21.1253 19.5837 22 17.2222 22 14.4444C22 11.6667 21.1253 9.30519 19.376 7.36C17.6253 5.4163 15.5 4.44444 13 4.44444C10.5 4.44444 8.37467 5.4163 6.624 7.36C4.87467 9.30519 4 11.6667 4 14.4444C4 17.2222 4.87467 19.5837 6.624 21.5289C8.37467 23.4726 10.5 24.4444 13 24.4444Z" fill="#245669"/>
</svg>
